<svg xmlns="http://www.w3.org/2000/svg" viewBox="0 0 900 1200"><defs><linearGradient id="sky" x1="0" y1="0" x2="0" y2="1"><stop stop-color="#263137"/><stop offset=".45" stop-color="#141c20"/><stop offset="1" stop-color="#080b0d"/></linearGradient><linearGradient id="ash" x1="0" y1="0" x2="1" y2="1"><stop stop-color="#b8b6aa" stop-opacity=".18"/><stop offset=".5" stop-color="#6e7778" stop-opacity=".03"/><stop offset="1" stop-color="#d4d0c0" stop-opacity=".12"/></linearGradient><radialGradient id="moon"><stop stop-color="#c8c8bd" stop-opacity=".24"/><stop offset="1" stop-color="#9da5a3" stop-opacity="0"/></radialGradient><filter id="grain"><feTurbulence type="fractalNoise" baseFrequency=".65" numOctaves="4"/><feColorMatrix type="saturate" values="0"/><feComponentTransfer><feFuncA type="table" tableValues="0 .12"/></feComponentTransfer></filter><filter id="blur"><feGaussianBlur stdDeviation="16"/></filter></defs><rect width="900" height="1200" fill="url(#sky)"/><circle cx="715" cy="180" r="115" fill="url(#moon)"/><circle cx="715" cy="180" r="38" fill="#d7d5cb" opacity=".12"/><g fill="#0b1012"><path d="M0 515L74 468 136 493 198 440 258 486 319 423 379 476 447 406 507 464 575 429 644 470 719 421 790 467 900 422V695H0Z"/><path d="M0 650C121 608 218 625 321 598S518 550 650 581 817 601 900 574V1200H0Z" opacity=".95"/></g><g opacity=".95"><path d="M25 765V492L197 367 363 486V770Z" fill="#12191c" stroke="#485357" stroke-width="5"/><path d="M60 520H322M98 765V548H191V765" stroke="#646d70" stroke-width="5" opacity=".45"/><path d="M111 420l73-101 68 94" fill="#0d1214" stroke="#394246" stroke-width="5"/><path d="M189 318v-78m-22 25h45" stroke="#30393d" stroke-width="10"/><g fill="#8c6748" opacity=".24"><rect x="76" y="557" width="40" height="31"/><rect x="252" y="553" width="42" height="31"/></g></g><g><path d="M645 765V401h93v364" fill="#121a1d" stroke="#465256" stroke-width="5"/><path d="M620 401h143l-26-143h-86Z" fill="#101619" stroke="#3d494d" stroke-width="5"/><path d="M690 258v-69" stroke="#475257" stroke-width="8"/><path d="M603 765l54-235m36 235l-16-239m75 239l-43-232" stroke="#303a3e" stroke-width="11"/></g><g stroke="#4d5a5e" stroke-width="6" opacity=".45"><path d="M0 821h210m50-16h180m42 9h224m36-11h158"/><path d="M46 813v-86m102 91v-109m162 99v-92m228 90v-102m146 96v-88m119 81v-92"/></g><path d="M0 934C135 866 264 904 390 856S642 824 900 888V1200H0Z" fill="#070a0b"/><path d="M0 1007C210 931 430 1008 900 900V1200H0Z" fill="#050708"/><g fill="#161d1f" stroke="#3d4749" stroke-width="4"><path d="M457 874l82-45 74 31-29 63-105 17Z"/><path d="M340 955l62-38 58 22-23 52-77 12Z"/><path d="M707 934l58-26 52 21-11 47-71 14Z"/></g><g fill="#968061" opacity=".18"><circle cx="526" cy="850" r="5"/><circle cx="542" cy="842" r="3"/><circle cx="515" cy="867" r="4"/></g><g filter="url(#blur)" opacity=".7"><ellipse cx="285" cy="630" rx="280" ry="64" fill="#b9c0bb" opacity=".11"/><ellipse cx="708" cy="565" rx="260" ry="75" fill="#c5c7c0" opacity=".09"/></g><g stroke="#d8d9d1" stroke-opacity=".09" stroke-width="2"><path d="M-90 70l380 1130M-20 0l380 1200M70 0l380 1200M160 0l380 1200M250 0l380 1200M340 0l380 1200M430 0l380 1200M520 0l380 1200M610 0l380 1200M700 0l380 1200"/></g><rect width="900" height="1200" fill="url(#ash)" opacity=".38"/><rect width="900" height="1200" fill="#fff" filter="url(#grain)" opacity=".24"/></svg>