<svg xmlns="http://www.w3.org/2000/svg" viewBox="0 0 420 760"><defs><linearGradient id="coat" x1="0" y1="0" x2="1" y2="1"><stop stop-color="#555a58"/><stop offset=".55" stop-color="#282e2f"/><stop offset="1" stop-color="#111516"/></linearGradient><linearGradient id="iron" x1="0" y1="0" x2="1" y2="1"><stop stop-color="#9b9690"/><stop offset="1" stop-color="#363b3d"/></linearGradient><filter id="grain"><feTurbulence type="fractalNoise" baseFrequency=".7" numOctaves="3"/><feColorMatrix type="saturate" values="0"/><feComponentTransfer><feFuncA type="table" tableValues="0 .18"/></feComponentTransfer></filter></defs><g transform="translate(18 10)"><path d="M178 32l67 17 31 50-20 82-83 8-44-61 13-67Z" fill="#77766f"/><path d="M156 65l22-48 47 8 22 45-10 31-70-5Z" fill="#34383a"/><path d="M169 81h57l-8 29-44 4Z" fill="#111516"/><circle cx="185" cy="92" r="5" fill="#b58c62"/><circle cx="211" cy="90" r="5" fill="#b58c62"/><path d="M112 173Q194 127 286 179l54 258-79 269h-64l-18-193-28 193H92L58 451Z" fill="url(#coat)" stroke="#81827c" stroke-width="7"/><path d="M104 184l-56 81 38 45 70-67M287 187l58 72-34 53-74-68" fill="#303637" stroke="#777a76" stroke-width="7"/><path d="M95 262l192 32M86 337l211 31M78 417l220 26" stroke="#686d6c" stroke-width="6" opacity=".45"/><path d="M127 189l22 255M261 188l-20 256" stroke="#161a1b" stroke-width="21" opacity=".7"/><path d="M65 303l-28 149 38 15 47-133Z" fill="#383d3e" stroke="#777b78" stroke-width="6"/><path d="M324 298l44 157-39 14-63-131Z" fill="#34393a" stroke="#777b78" stroke-width="6"/><path d="M344 214l42 12-52 195-35-8Z" fill="url(#iron)" stroke="#c0bbb0" stroke-width="5"/><path d="M374 214l18 9-28 49-19-8Z" fill="#bfa276"/><path d="M80 470l46 15-14 208-62 25-20-23Z" fill="#1c2223"/><path d="M258 480l47-13 42 212-54 38-28-24Z" fill="#1d2223"/><path d="M47 707h94v29H32Z" fill="#101415"/><path d="M277 704h93v30h-111Z" fill="#101415"/><path d="M103 172l20-48 70 30 83-26 18 55-80 31Z" fill="#252a2b"/><path d="M186 210l31 0 7 96-39 3Z" fill="#5d5143"/><g fill="#b5a17f" opacity=".55"><circle cx="74" cy="318" r="5"/><circle cx="324" cy="335" r="4"/><circle cx="203" cy="373" r="4"/></g><rect x="38" y="34" width="340" height="690" fill="#fff" filter="url(#grain)" opacity=".18"/></g></svg>