<svg xmlns="http://www.w3.org/2000/svg" viewBox="0 0 320 520"><defs><radialGradient id="g"><stop stop-color="#b68d59" stop-opacity=".65"/><stop offset="1" stop-color="#b68d59" stop-opacity="0"/></radialGradient></defs><ellipse cx="160" cy="486" rx="94" ry="20" fill="#000" opacity=".58"/><path d="M127 56h66l23 31-13 67h-86l-14-67Z" fill="#5e5650" stroke="#a0958a" stroke-width="6"/><path d="M118 75h84l-17-26h-50Z" fill="#2e2a27"/><path d="M90 163Q160 132 230 164l31 255-68 63-33-170-32 170-68-63Z" fill="#302b28" stroke="#766b62" stroke-width="7"/><path d="M92 184l-48 177 38 21 61-187" fill="#292522" stroke="#6f665e" stroke-width="7"/><path d="M221 190l48 77" stroke="#9c8b77" stroke-width="10"/><path d="M264 255l31 10-9 77-44-14Z" fill="#736454" stroke="#b19d83" stroke-width="6"/><path d="M267 330v90" stroke="#8b765f" stroke-width="7"/><circle cx="271" cy="319" r="44" fill="url(#g)" opacity=".65"/><path d="M117 151l43 42 43-42M160 193v111M135 238h50" stroke="#9c8568" stroke-width="5" fill="none" opacity=".72"/><path d="M103 226h116M92 284h137M84 342h151" stroke="#817469" stroke-width="4" opacity=".3"/><path d="M128 478H82M194 478h45" stroke="#49433e" stroke-width="15"/></svg>