<svg xmlns="http://www.w3.org/2000/svg" viewBox="0 0 260 430"><defs><linearGradient id="robe" x1="0" y1="0" x2="1" y2="1"><stop stop-color="#2b3538"/><stop offset="1" stop-color="#0a0e10"/></linearGradient><linearGradient id="glass" x1="0" y1="0" x2="1" y2="1"><stop stop-color="#d0c19a" stop-opacity=".88"/><stop offset="1" stop-color="#796344" stop-opacity=".22"/></linearGradient><radialGradient id="lamp"><stop stop-color="#c7ad76" stop-opacity=".7"/><stop offset="1" stop-color="#c7ad76" stop-opacity="0"/></radialGradient><filter id="shadow"><feGaussianBlur stdDeviation="7"/></filter></defs><ellipse cx="130" cy="403" rx="87" ry="17" fill="#000" opacity=".62" filter="url(#shadow)"/><circle cx="195" cy="232" r="44" fill="url(#lamp)" opacity=".22"/><g stroke-linejoin="round"><path d="M106 47l18-20 25 1 18 20-3 28-17 22-30 2-17-22z" fill="#273135" stroke="#6a7679" stroke-width="3"/><path d="M111 52l51-2-4 19-42 3z" fill="#090c0e" stroke="#8a9494" stroke-width="2"/><path d="M116 67l-22 18 35 12" fill="#5c696a" stroke="#8e9998" stroke-width="3"/><path d="M89 108l38-18 42 16 24 45-11 44 2 147H77L72 198l-13-45z" fill="url(#robe)" stroke="#526065" stroke-width="3"/><path d="M95 116l33-13 36 12 5 48-38 21-39-21z" fill="#354145" stroke="#788386" stroke-width="3"/><path d="M73 136l-27 27-8 93 23 7 32-72z" fill="#1d272a" stroke="#515d61" stroke-width="3"/><path d="M181 137l26 24 9 86-22 8-30-68z" fill="#1c2528" stroke="#515d61" stroke-width="3"/><path d="M92 183l77 0 5 161-41 27-43-29z" fill="#10171a" stroke="#475357" stroke-width="3"/><path d="M106 192h48l4 116-26 20-25-19z" fill="#303c3f" opacity=".7"/><path d="M83 315h40l-5 83H76zM139 316h36l10 82h-42z" fill="#111719" stroke="#465154" stroke-width="3"/><path d="M72 392h52l-6 18H67zM139 392h50l7 18h-55z" fill="#080b0d" stroke="#485255" stroke-width="3"/><path d="M103 130h54v35h-54z" fill="#172023" stroke="#7d8989" stroke-width="2"/><circle cx="130" cy="147" r="9" fill="#8b7754"/><path d="M130 137v20M120 147h20" stroke="#c5b58f" stroke-width="2" opacity=".7"/><path d="M63 214l35 12-12 59-39-13z" fill="#313c3f" stroke="#687477" stroke-width="3"/><path d="M54 228h31M52 243h31M50 258h29" stroke="#9ca5a2" stroke-width="2" opacity=".35"/><path d="M198 188l14 8-10 89-21 0-4-88z" fill="#252e31" stroke="#697578" stroke-width="3"/><path d="M185 204h17l-3 41h-13z" fill="url(#glass)" stroke="#b19c73" stroke-width="2"/><path d="M190 183v-26M183 157h16" stroke="#697578" stroke-width="3"/><path d="M210 117l9 5-26 70-10-4z" fill="#a4adab"/><path d="M217 111l13 3-2 30-16-4z" fill="#6e7879"/><path d="M87 103l-15-27 12-7 25 27z" fill="#273236"/><path d="M78 75l25-13 7 10-26 17z" fill="#697476"/></g></svg>